<svg width="81" height="36" viewBox="0 0 81 36" fill="none" xmlns="http://www.w3.org/2000/svg">
<path d="M2.144 35.336C0.832 35.336 0.176 34.648 0.176 33.272V2.888C0.176 1.512 0.832 0.823999 2.144 0.823999C3.456 0.823999 4.112 1.512 4.112 2.888V33.272C4.112 34.648 3.456 35.336 2.144 35.336ZM14.6641 35C13.2241 35 12.5041 34.28 12.5041 32.84V3.32C12.5041 1.88 13.2241 1.16 14.6641 1.16H23.9281C29.4001 1.16 33.6241 2.616 36.6001 5.528C39.5761 8.408 41.0641 12.584 41.0641 18.056C41.0641 23.528 39.5761 27.72 36.6001 30.632C33.6241 33.544 29.4001 35 23.9281 35H14.6641ZM16.4401 31.64H23.6401C32.4721 31.64 36.8881 27.112 36.8881 18.056C36.8881 9.032 32.4721 4.52 23.6401 4.52H16.4401V31.64ZM50.0491 35.336C48.8331 35.336 48.2251 34.696 48.2251 33.416V2.744C48.2251 1.464 48.8331 0.823999 50.0491 0.823999C50.5611 0.823999 50.9611 0.935999 51.2491 1.16C51.5691 1.352 51.8571 1.688 52.1131 2.168L64.5451 25.592L76.9291 2.168C77.1851 1.688 77.4571 1.352 77.7451 1.16C78.0331 0.935999 78.4491 0.823999 78.9931 0.823999C80.1771 0.823999 80.7691 1.464 80.7691 2.744V33.416C80.7691 34.696 80.1611 35.336 78.9451 35.336C77.7291 35.336 77.1211 34.696 77.1211 33.416V8.552L66.2731 28.952C66.0491 29.368 65.8091 29.672 65.5531 29.864C65.3291 30.024 64.9931 30.104 64.5451 30.104C64.0971 30.104 63.7451 30.008 63.4891 29.816C63.2331 29.624 63.0091 29.336 62.8171 28.952L51.8251 8.6V33.416C51.8251 34.696 51.2331 35.336 50.0491 35.336Z" fill="black"/>
</svg>
