<svg width="40" height="40" viewBox="0 0 40 40" fill="none" xmlns="http://www.w3.org/2000/svg">
<path d="M40 20C40 8.9543 31.0457 0 20 0C8.9543 0 0 8.9543 0 20C0 31.0457 8.9543 40 20 40C31.0457 40 40 31.0457 40 20Z" fill="#292929"/>
<path d="M32.0832 29.7143L30.2755 27.9047C30.0852 27.8095 29.99 27.5237 29.99 27.3334V12.8571C29.99 12.6666 30.0852 12.381 30.2755 12.1905L32.0832 10.0952V10H25.6134L20.761 22.2857L15.2426 10H8.58258V10.0952L10.2952 12.4762C10.6758 12.8571 10.7709 13.4286 10.7709 13.9048V24.381C10.866 24.9524 10.7709 25.619 10.4855 26.1905L7.91656 29.7143V29.8095H14.767V29.7143L12.1981 26.2858C11.9126 25.7143 11.8175 25.1429 11.9126 24.4762V14.9524C12.0078 15.1429 12.1029 15.1429 12.1981 15.5237L18.6679 30H18.763L25.0425 14.2858C24.9474 14.8571 24.9474 15.5238 24.9474 16V27.2381C24.9474 27.5238 24.8522 27.7142 24.662 27.9047L22.7591 29.7143V29.8095H32.0832V29.7143Z" fill="white"/>
</svg>
